<?xml version="1.0" encoding="UTF-8" standalone="no"?>
<!-- Generator: Adobe Illustrator 19.0.0, SVG Export Plug-In . SVG Version: 6.00 Build 0)  -->

<svg
   xmlns:dc="http://purl.org/dc/elements/1.1/"
   xmlns:cc="http://creativecommons.org/ns#"
   xmlns:rdf="http://www.w3.org/1999/02/22-rdf-syntax-ns#"
   xmlns:svg="http://www.w3.org/2000/svg"
   xmlns="http://www.w3.org/2000/svg"
   xmlns:sodipodi="http://sodipodi.sourceforge.net/DTD/sodipodi-0.dtd"
   xmlns:inkscape="http://www.inkscape.org/namespaces/inkscape"
   version="1.1"
   id="Layer_1"
   x="0px"
   y="0px"
   viewBox="0 0 54.950001 55.25"
   xml:space="preserve"
   sodipodi:docname="Apps-02.svg"
   width="54.950001"
   height="55.25"
   inkscape:version="0.92.5 (2060ec1f9f, 2020-04-08)"><metadata
   id="metadata10"><rdf:RDF><cc:Work
       rdf:about=""><dc:format>image/svg+xml</dc:format><dc:type
         rdf:resource="http://purl.org/dc/dcmitype/StillImage" /><dc:title></dc:title></cc:Work></rdf:RDF></metadata><defs
   id="defs8" /><sodipodi:namedview
   pagecolor="#ffffff"
   bordercolor="#666666"
   borderopacity="1"
   objecttolerance="10"
   gridtolerance="10"
   guidetolerance="10"
   inkscape:pageopacity="0"
   inkscape:pageshadow="2"
   inkscape:window-width="1920"
   inkscape:window-height="1017"
   id="namedview6"
   showgrid="false"
   fit-margin-top="0"
   fit-margin-left="0"
   fit-margin-right="0"
   fit-margin-bottom="0"
   inkscape:zoom="2.4583333"
   inkscape:cx="27.475"
   inkscape:cy="27.625"
   inkscape:window-x="-8"
   inkscape:window-y="-8"
   inkscape:window-maximized="1"
   inkscape:current-layer="XMLID_1_" />
<g
   id="XMLID_1_"
   transform="translate(-20.525,-20.375)">
	<path
   id="XMLID_5_"
   d="M 73.6,31 52.2,21.2 c -2.3,-1.1 -6.1,-1.1 -8.4,0 L 22.4,31 c -2.5,1.1 -2.5,3 0,4.2 l 21.2,9.7 c 2.4,1.1 6.4,1.1 8.8,0 l 21.2,-9.7 c 2.5,-1.1 2.5,-3 0,-4.2 z m -30,34.1 -14.3,-6.5 c -0.6,-0.3 -1.3,-0.3 -1.9,0 l -5,2.3 c -2.5,1.1 -2.5,3 0,4.2 l 21.2,9.7 c 2.4,1.1 6.4,1.1 8.8,0 L 73.6,65 c 2.5,-1.1 2.5,-3 0,-4.2 l -5,-2.3 c -0.6,-0.3 -1.3,-0.3 -1.9,0 L 52.4,65 C 50,66.2 46,66.2 43.6,65.1 Z"
   style="fill:#57e2af;fill-opacity:1"
   inkscape:connector-curvature="0" />
	<path
   id="XMLID_6_"
   d="m 73.6,45.9 -4.5,-2.1 c -0.6,-0.3 -1.3,-0.3 -1.9,0 l -15.5,7 c -2.2,0.7 -5.2,0.7 -7.4,0 l -15.5,-7 c -0.6,-0.3 -1.3,-0.3 -1.9,0 l -4.5,2.1 c -2.5,1.1 -2.5,3 0,4.2 l 21.2,9.7 c 2.4,1.1 6.4,1.1 8.8,0 l 21.2,-9.7 c 2.5,-1.1 2.5,-3 0,-4.2 z"
   style="fill:#57e2af;fill-opacity:1"
   inkscape:connector-curvature="0" />
</g>
</svg>