<?xml version="1.0" encoding="UTF-8" standalone="no"?>
<svg
   xmlns:dc="http://purl.org/dc/elements/1.1/"
   xmlns:cc="http://creativecommons.org/ns#"
   xmlns:rdf="http://www.w3.org/1999/02/22-rdf-syntax-ns#"
   xmlns:svg="http://www.w3.org/2000/svg"
   xmlns="http://www.w3.org/2000/svg"
   xmlns:xlink="http://www.w3.org/1999/xlink"
   xmlns:sodipodi="http://sodipodi.sourceforge.net/DTD/sodipodi-0.dtd"
   xmlns:inkscape="http://www.inkscape.org/namespaces/inkscape"
   version="1.1"
   id="Layer_1"
   x="0px"
   y="0px"
   viewBox="20.524996 20.375 55.950001 56.290718"
   xml:space="preserve"
   sodipodi:docname="new fluid prototype.svg"
   width="55.950001"
   height="56.290718"
   inkscape:version="1.0 (4035a4fb49, 2020-05-01)"><metadata
   id="metadata10"><rdf:RDF><cc:Work
       rdf:about=""><dc:format>image/svg+xml</dc:format><dc:type
         rdf:resource="http://purl.org/dc/dcmitype/StillImage" /><dc:title></dc:title></cc:Work></rdf:RDF></metadata><defs
   id="defs8"><linearGradient
     inkscape:collect="always"
     id="linearGradient848"><stop
       style="stop-color:#27d69c;stop-opacity:1"
       offset="0"
       id="stop844" /><stop
       style="stop-color:#43e8b1;stop-opacity:1"
       offset="1"
       id="stop846" /></linearGradient><linearGradient
     inkscape:collect="always"
     xlink:href="#linearGradient848"
     id="linearGradient850"
     x1="19.499487"
     y1="19.627478"
     x2="76.386566"
     y2="77.056198"
     gradientUnits="userSpaceOnUse" /></defs><sodipodi:namedview
   showguides="false"
   inkscape:document-rotation="0"
   pagecolor="#ffffff"
   bordercolor="#666666"
   borderopacity="1"
   objecttolerance="10"
   gridtolerance="10"
   guidetolerance="10"
   inkscape:pageopacity="0"
   inkscape:pageshadow="2"
   inkscape:window-width="1368"
   inkscape:window-height="850"
   id="namedview6"
   showgrid="false"
   fit-margin-top="0"
   fit-margin-left="0"
   fit-margin-right="0"
   fit-margin-bottom="0"
   inkscape:zoom="8.7760967"
   inkscape:cx="28.053288"
   inkscape:cy="32.310547"
   inkscape:window-x="-6"
   inkscape:window-y="-6"
   inkscape:window-maximized="1"
   inkscape:current-layer="XMLID_1_"><sodipodi:guide
     id="guide835"
     orientation="1,0"
     position="-18.345286,35.438623" /></sodipodi:namedview> <g
   id="XMLID_1_"
   transform="translate(0.499996,0.52043098)"> 	 	<path
   id="XMLID_6_"
   d="m 73.6,45.9 -4.5,-2.1 c -0.6,-0.3 -1.3,-0.3 -1.9,0 l -15.5,7 c -2.2,0.7 -5.2,0.7 -7.4,0 l -15.5,-7 c -0.6,-0.3 -1.3,-0.3 -1.9,0 l -4.5,2.1 c -2.5,1.1 -2.5,3 0,4.2 l 21.2,9.7 c 2.4,1.1 6.4,1.1 8.8,0 l 21.2,-9.7 c 2.5,-1.1 2.5,-3 0,-4.2 z M 73.6,31 52.2,21.2 c -2.3,-1.1 -6.1,-1.1 -8.4,0 L 22.4,31 c -2.5,1.1 -2.5,3 0,4.2 l 21.2,9.7 c 2.4,1.1 6.4,1.1 8.8,0 l 21.2,-9.7 c 2.5,-1.1 2.5,-3 0,-4.2 z m -30,34.1 -14.3,-6.5 c -0.6,-0.3 -1.3,-0.3 -1.9,0 l -5,2.3 c -2.5,1.1 -2.5,3 0,4.2 l 21.2,9.7 c 2.4,1.1 6.4,1.1 8.8,0 L 73.6,65 c 2.5,-1.1 2.5,-3 0,-4.2 l -5,-2.3 c -0.6,-0.3 -1.3,-0.3 -1.9,0 L 52.4,65 C 50,66.2 46,66.2 43.6,65.1 Z"
   style="fill:url(#linearGradient850);fill-opacity:1;stroke:#28c893;stroke-opacity:1" /> </g> </svg>
